# xmcd
#
# Track frame offsets:
#	150
#	15855
#	29650
#	46388
#	57118
#	74133
#	89188
#	105463
#	121740
#	137583
#	154315
#	168610
#	184500
#
# Disc length: 2698 seconds
#
# Revision: 1270868297
# Processed by: cddbd v1.5.2PL0 Copyright (c) Steve Scherf et al.
# Submitted via: EZCDAudioConverter 9.1.1.1
#
DISCID=b10a880d
DTITLE=Emmylou Harris  - Emmylou Harris -Wayfaring Stranger
DYEAR=2010
DGENRE=country
TTITLE0=Wayfaring Stranger   
TTITLE1=Pledging My Love   
TTITLE2=Save The Last Dance For Me   
TTITLE3=Mister Sandman   
TTITLE4=Beneath Still Waters   
TTITLE5=Blue Kentucky Girl   
TTITLE6=(Lost His Love) On Our Last Dat [Lost His Love) On Our Last Dat]   
TTITLE7=Making Believe   
TTITLE8=(You Never Can Tell) C'Est La Vie   
TTITLE9=Love Hurts (With Gram Parsons)   
TTITLE10=Easy From Now On   
TTITLE11=Too Far Gone   
TTITLE12=Hello Stranger   
EXTD=
EXTT0=
EXTT1=
EXTT2=
EXTT3=
EXTT4=
EXTT5=
EXTT6=
EXTT7=
EXTT8=
EXTT9=
EXTT10=
EXTT11=
EXTT12=
PLAYORDER=
